<svg id="Layer_1" enable-background="new 0 0 511.99 511.99" height="512" viewBox="0 0 511.99 511.99" width="512" xmlns="http://www.w3.org/2000/svg"><g><path d="m395.995 504.49h-280c-5.523 0-10-4.477-10-10v-21.448c0-49.87 40.427-90.297 90.297-90.297h119.406c49.87 0 90.297 40.427 90.297 90.297v21.448c0 5.523-4.477 10-10 10z" fill="#ff9154"/><path d="m315.698 382.746h-30c49.87 0 90.297 40.427 90.297 90.297v21.448c0 5.523-4.477 10-10 10h30c5.523 0 10-4.477 10-10v-21.448c0-49.87-40.427-90.297-90.297-90.297z" fill="#ff7f3e"/><path d="m225.995 320.602h60v97.564h-60z" fill="#ffcebf"/><path d="m255.995 320.602h30v97.564h-30z" fill="#ffb09e"/><path d="m225.995 359.237s0 37.235 30 58.929c0 0-18.691 20.871-37.598 14.241-14.98-5.253-23.457-33.195-26.331-44.574-.725-2.869.428-5.878 2.877-7.539z" fill="#eae7ea"/><path d="m285.995 359.237s0 37.235-30 58.929c0 0 18.691 20.871 37.598 14.241 14.98-5.253 23.457-33.195 26.331-44.574.725-2.869-.428-5.878-2.877-7.539z" fill="#eae7ea"/><circle cx="255.995" cy="464.567" fill="#f3f0f3" r="16"/><g fill="#ffb09e"><path d="m172.889 220.815c0 21.879-13.38 39.615-29.885 39.615s-26.093-20.369-26.093-42.248 9.588-36.983 26.093-36.983 29.885 17.737 29.885 39.616z"/><path d="m339.101 220.815c0 21.879 13.38 39.615 29.885 39.615s26.093-20.369 26.093-42.248-9.588-36.983-26.093-36.983-29.885 17.737-29.885 39.616z"/></g><path d="m159.541 243.388v-65.633c0-53.27 43.184-96.454 96.454-96.454 53.27 0 96.454 43.184 96.454 96.454v65.27c0 53.371-43.265 96.636-96.636 96.636-53.17-.001-96.272-43.103-96.272-96.273z" fill="#ffcebf"/><path d="m255.995 81.3c-5.103 0-10.112.4-15 1.163 46.146 7.206 81.455 47.124 81.455 95.292v65.27c0 48.263-35.382 88.259-81.621 95.473 4.883.763 9.887 1.163 14.985 1.163 53.371 0 96.636-43.266 96.636-96.636v-65.27c0-53.271-43.184-96.455-96.455-96.455z" fill="#ffb09e"/><path d="m255.995 64.021c-147.923 0-106.256 127.685-103.067 134.54 2.997 6.452 6.613 24.009 6.613 24.009s20.549-16.513 19.887-22.814c-1.059-10.069-6.89-71.924 18.55-66.093 25.431 5.831 35.904 10.069 57.167 10.069s31.735-4.238 57.167-10.069c25.44-5.831 19.61 56.023 18.55 66.093-.663 6.302 21.589 22.871 21.589 22.871s1.914-17.614 4.91-24.066c4.74-10.193 46.557-134.54-101.366-134.54z" fill="#9b5e5e"/><path d="m364.995 111.49h-218l2.727-15.15c9.258-51.43 54.016-88.85 106.273-88.85 52.257 0 97.014 37.42 106.273 88.85z" fill="#d77f4a"/><path d="m362.268 96.34c-9.258-51.43-54.016-88.85-106.273-88.85-5.08 0-10.087.364-15 1.05 45.621 6.369 82.915 41.37 91.273 87.8l2.727 15.15h30z" fill="#c86d36"/><path d="m427.013 153.375h-342.036c-3.919 0-5.473-5.087-2.227-7.29l64.245-34.595h218l64.301 34.633c3.179 2.238 1.601 7.252-2.283 7.252z" fill="#fe646f"/><path d="m429.296 146.123-64.3-34.633h-30l64.3 34.633c3.18 2.238 1.601 7.251-2.282 7.251h30c3.883.001 5.461-5.013 2.282-7.251z" fill="#fd4755"/><g><path d="m279.496 464.567c0-12.958-10.542-23.5-23.5-23.5-31.176 1.291-31.167 45.714 0 47.001 12.958-.001 23.5-10.543 23.5-23.501zm-32 0c0-4.687 3.813-8.5 8.5-8.5 11.261.427 11.258 16.575 0 17-4.687 0-8.5-3.813-8.5-8.5z"/><path d="m255.996 269.529c2.454 0 4.907-.39 7.895-1.17 4.008-1.047 6.408-5.144 5.362-9.152-1.046-4.007-5.142-6.405-9.152-5.362-3.491.912-4.719.912-8.21 0-4.007-1.044-8.105 1.354-9.152 5.362-1.046 4.008 1.354 8.105 5.362 9.152 2.988.78 5.441 1.17 7.895 1.17z"/><path d="m231.707 189.695c3.33 0 6.371-2.235 7.252-5.607 1.046-4.008-1.354-8.105-5.362-9.151-11.342-2.961-18.258-2.961-29.602 0-9.522 2.842-5.899 16.688 3.789 14.514 8.954-2.338 13.07-2.338 22.024 0 .635.165 1.272.244 1.899.244z"/><path d="m313.36 184.088c1.046-4.008-1.354-8.105-5.362-9.151-11.343-2.961-18.259-2.961-29.602 0-4.008 1.046-6.409 5.144-5.362 9.151 1.032 4.041 5.251 6.414 9.151 5.362 8.953-2.338 13.07-2.338 22.024 0 4.008 1.047 8.105-1.355 9.151-5.362z"/><path d="m233.499 292.595c13.877 7.723 31.117 7.722 44.994 0 8.51-5.129 1.541-17.636-7.295-13.106-9.377 5.217-21.027 5.218-30.405 0-3.619-2.014-8.187-.713-10.201 2.907-2.013 3.618-.712 8.185 2.907 10.199z"/><path d="m206.496 217.122v6c.344 9.931 14.659 9.923 15 0v-6c-.344-9.93-14.659-9.923-15 0z"/><path d="m297.996 209.622c-4.142 0-7.5 3.358-7.5 7.5v6c.344 9.931 14.659 9.923 15 0v-6c0-4.142-3.358-7.5-7.5-7.5z"/><path d="m433.613 139.99c-.244-.171-.497-.328-.759-.469l-61.116-32.918-2.086-11.59c-13.871-82.631-113.507-122.943-180.934-73.4-3.366 2.414-4.138 7.1-1.724 10.466s7.1 4.138 10.466 1.724c58.678-43.115 145.368-8.01 157.429 63.868l1.138 6.321h-200.06l1.138-6.321c2.685-14.913 8.52-28.681 17.343-40.92 2.422-3.36 1.662-8.047-1.698-10.47-3.36-2.422-8.047-1.662-10.47 1.698-10.145 14.072-16.853 29.896-19.938 47.034l-2.086 11.59-61.06 32.88c-.226.121-.444.254-.656.397-4.201 2.851-6.021 8.03-4.529 12.887 1.491 4.851 5.898 8.109 10.967 8.109h52.887c.261 4.595.729 8.973 1.32 13.039-46.805 3.879-35.882 110.795 15.258 91.796 4.187 19.201 13.771 36.832 27.998 51.052 10.427 10.433 22.687 18.371 36.055 23.515v14.984l-27.761 18.826c-.654.443-1.261.936-1.823 1.468-49.658 2.764-91.38 47.668-90.416 97.485v21.45c0 9.649 7.851 17.5 17.5 17.5h59.231c9.931-.344 9.923-14.659 0-15h-59.231c-1.378 0-2.5-1.122-2.5-2.5v-21.45c0-41.983 30.888-76.613 71.643-82.035 4.205 16.105 13.566 42.445 30.778 48.48 3.458 1.212 6.869 1.73 10.181 1.73 12.521-.002 23.57-7.415 29.897-12.747 6.327 5.332 17.375 12.747 29.899 12.747 24.296.913 35.931-30.897 40.959-50.21 40.755 5.422 71.643 40.052 71.643 82.035v21.45c0 1.378-1.122 2.5-2.5 2.5h-185.769c-9.931.344-9.923 14.659 0 15h185.769c9.649 0 17.5-7.851 17.5-17.5v-21.45c.965-49.817-40.76-94.721-90.416-97.485-.562-.532-1.169-1.025-1.822-1.468l-27.762-18.826v-15.136c8.069-3.135 15.77-7.28 22.939-12.422 3.366-2.414 4.138-7.1 1.724-10.466s-7.099-4.138-10.466-1.724c-34.083 25.235-85.13 21.211-114.646-9.358-16.768-16.758-26.002-39.049-26.002-62.766v-17.277c20.85-17.403 20.1-24.684 19.841-27.143-.583-5.533-2.164-23.144-.591-38.095h137.702c1.534 14.418.143 31.082-.595 38.096-.263 2.502-1.026 9.911 21.543 27.371v16.678c0 17.774-5.214 34.935-15.077 49.625-2.309 3.439-1.393 8.098 2.046 10.407 3.394 2.292 8.084 1.419 10.407-2.046 7.261-10.814 12.361-22.77 15.146-35.327 51.63 19.233 62.256-89.343 14.357-91.851.688-4.055 1.261-8.4 1.625-12.954h53.564c5.024 0 9.42-3.222 10.938-8.017 1.521-4.8-.223-9.971-4.338-12.867zm-212.733 285.34c-7.694-2.698-16.104-17.995-21.46-39.009l20.537-13.926c2.355 12.38 8.505 31.158 24.547 46.032-5.85 4.525-15.128 9.88-23.624 6.903zm70.232 0c-8.496 2.981-17.778-2.379-23.625-6.903 16.042-14.875 22.192-33.652 24.547-46.033l20.537 13.926c-5.354 21.015-13.763 36.311-21.459 39.01zm-12.616-80.657v14.543c-.002.316-.446 29.953-22.5 49.354-22.054-19.402-22.498-49.039-22.5-49.354v-14.453c14.568 3.217 30.434 3.186 45-.09zm-135.49-91.743c-21.653-.109-27.636-62.54-.923-64.198 1.732 6.999 3.445 11.701 4.043 12.987 1.845 3.972 4.536 15.069 5.919 21.649v20.021c0 2.207.076 4.401.212 6.584-2.409 1.607-5.538 2.957-9.251 2.957zm28.866-53.331c-.905 1.82-3.934 5.25-7.869 9.048-1.264-4.881-2.789-10.052-4.267-13.234-.558-1.248-2.45-6.783-4.141-14.847-.002-.014-.006-.027-.008-.04-1.161-5.547-2.224-12.288-2.695-19.651h18.328c-1.364 14.849-.13 30.982.652 38.724zm197.114-10.899c30.89.14 20.508 80.675-9.28 61.255.152-2.301.24-4.613.24-6.935v-19.929c.764-6.838 2.541-17.763 4.215-21.367.799-1.717 2.569-6.37 4.383-13.008.148-.004.295-.016.442-.016zm-13.705-8.582c-.058.205-.108.412-.149.623-1.837 7.661-3.814 13.028-4.574 14.661-1.5 3.229-2.704 8.235-3.607 13.061-4.209-3.76-7.473-7.165-8.519-9.013.778-7.762 1.991-23.809.634-38.574h19.331c-.639 7.198-1.832 13.777-3.116 19.242zm-256.321-34.243 49.927-26.885h214.218l49.915 26.885z"/></g></g></svg>